<svg xmlns="http://www.w3.org/2000/svg" xmlns:xlink="http://www.w3.org/1999/xlink" width="250" zoomAndPan="magnify" viewBox="0 0 187.5 187.499992" height="250" preserveAspectRatio="xMidYMid meet" version="1.0"><defs><g/><clipPath id="55e14838f6"><path d="M 0.410156 5 L 16 5 L 16 19 L 0.410156 19 Z M 0.410156 5 " clip-rule="nonzero"/></clipPath><clipPath id="667643e6f3"><rect x="0" width="105" y="0" height="23"/></clipPath><clipPath id="073897eb06"><path d="M 64.015625 89 L 91 89 L 91 115 L 64.015625 115 Z M 64.015625 89 " clip-rule="nonzero"/></clipPath></defs><path fill="#ffffff" d="M 0 0 L 187 0 L 187 187 L 0 187 Z M 0 0 " fill-opacity="1" fill-rule="nonzero"/><path fill="#ffffff" d="M 0 0 L 187 0 L 187 187 L 0 187 Z M 0 0 " fill-opacity="1" fill-rule="nonzero"/><g transform="matrix(1, 0, 0, 1, 41, 113)"><g clip-path="url(#667643e6f3)"><g clip-path="url(#55e14838f6)"><g fill="#242424" fill-opacity="1"><g transform="translate(0.581496, 18.249016)"><g><path d="M 0.125 0 L 5.578125 -12.9375 L 9 -12.9375 L 14.46875 0 L 10.65625 0 L 9.734375 -2.3125 L 4.765625 -2.3125 L 3.859375 0 Z M 5.8125 -5.078125 L 8.6875 -5.078125 L 7.265625 -8.71875 Z M 5.8125 -5.078125 "/></g></g></g></g><g fill="#242424" fill-opacity="1"><g transform="translate(15.163226, 18.249016)"><g><path d="M 1.03125 0 L 1.03125 -13.390625 L 4.5 -13.390625 L 4.5 0 Z M 1.03125 0 "/></g></g></g><g fill="#242424" fill-opacity="1"><g transform="translate(20.684107, 18.249016)"><g><path d="M 1.03125 0 L 1.03125 -13.390625 L 4.5 -13.390625 L 4.5 0 Z M 1.03125 0 "/></g></g></g><g fill="#242424" fill-opacity="1"><g transform="translate(26.204988, 18.249016)"><g><path d="M 4.25 0.21875 C 3.195312 0.21875 2.367188 -0.109375 1.765625 -0.765625 C 1.160156 -1.429688 0.859375 -2.328125 0.859375 -3.453125 L 0.859375 -9.921875 L 4.34375 -9.921875 L 4.34375 -4.546875 C 4.34375 -4.003906 4.472656 -3.585938 4.734375 -3.296875 C 5.003906 -3.015625 5.347656 -2.875 5.765625 -2.875 C 6.179688 -2.875 6.53125 -3.015625 6.8125 -3.296875 C 7.09375 -3.585938 7.234375 -4.003906 7.234375 -4.546875 L 7.234375 -9.921875 L 10.6875 -9.921875 L 10.6875 0 L 7.234375 0 L 7.234375 -1.375 C 6.910156 -0.957031 6.503906 -0.585938 6.015625 -0.265625 C 5.535156 0.0546875 4.945312 0.21875 4.25 0.21875 Z M 4.25 0.21875 "/></g></g></g><g fill="#242424" fill-opacity="1"><g transform="translate(37.83369, 18.249016)"><g><path d="M 0.9375 0 L 0.9375 -9.921875 L 4.421875 -9.921875 L 4.421875 -7.921875 C 4.703125 -8.597656 5.085938 -9.132812 5.578125 -9.53125 C 6.078125 -9.9375 6.738281 -10.125 7.5625 -10.09375 L 7.5625 -6.421875 L 7.265625 -6.421875 C 6.359375 -6.421875 5.65625 -6.148438 5.15625 -5.609375 C 4.664062 -5.078125 4.421875 -4.238281 4.421875 -3.09375 L 4.421875 0 Z M 0.9375 0 "/></g></g></g><g fill="#242424" fill-opacity="1"><g transform="translate(45.683981, 18.249016)"><g><path d="M 3.78125 0.21875 C 2.832031 0.21875 2.039062 -0.046875 1.40625 -0.578125 C 0.769531 -1.109375 0.453125 -1.863281 0.453125 -2.84375 L 0.453125 -2.875 C 0.453125 -3.90625 0.8125 -4.679688 1.53125 -5.203125 C 2.25 -5.734375 3.1875 -6 4.34375 -6 C 4.800781 -6 5.242188 -5.960938 5.671875 -5.890625 C 6.097656 -5.816406 6.453125 -5.722656 6.734375 -5.609375 L 6.734375 -5.78125 C 6.734375 -6.300781 6.566406 -6.703125 6.234375 -6.984375 C 5.898438 -7.265625 5.40625 -7.40625 4.75 -7.40625 C 4.226562 -7.40625 3.75 -7.351562 3.3125 -7.25 C 2.882812 -7.144531 2.445312 -7.015625 2 -6.859375 L 1.28125 -9.296875 C 1.84375 -9.535156 2.441406 -9.722656 3.078125 -9.859375 C 3.710938 -10.003906 4.453125 -10.078125 5.296875 -10.078125 C 6.179688 -10.078125 6.9375 -9.972656 7.5625 -9.765625 C 8.1875 -9.554688 8.691406 -9.253906 9.078125 -8.859375 C 9.460938 -8.492188 9.734375 -8.050781 9.890625 -7.53125 C 10.054688 -7.007812 10.140625 -6.398438 10.140625 -5.703125 L 10.140625 0 L 6.71875 0 L 6.71875 -1.046875 C 6.375 -0.671875 5.957031 -0.363281 5.46875 -0.125 C 4.988281 0.101562 4.425781 0.21875 3.78125 0.21875 Z M 5.03125 -1.96875 C 5.539062 -1.96875 5.957031 -2.113281 6.28125 -2.40625 C 6.601562 -2.707031 6.765625 -3.101562 6.765625 -3.59375 L 6.765625 -4.046875 C 6.585938 -4.117188 6.378906 -4.179688 6.140625 -4.234375 C 5.898438 -4.285156 5.648438 -4.3125 5.390625 -4.3125 C 4.890625 -4.3125 4.5 -4.203125 4.21875 -3.984375 C 3.9375 -3.765625 3.796875 -3.460938 3.796875 -3.078125 L 3.796875 -3.046875 C 3.796875 -2.703125 3.910156 -2.4375 4.140625 -2.25 C 4.378906 -2.0625 4.675781 -1.96875 5.03125 -1.96875 Z M 5.03125 -1.96875 "/></g></g></g><g fill="#242424" fill-opacity="1"><g transform="translate(56.670718, 18.249016)"><g/></g></g><g fill="#242424" fill-opacity="1"><g transform="translate(61.751398, 18.249016)"><g><path d="M 1.140625 0 L 1.140625 -12.84375 L 4.890625 -12.84375 L 7.96875 -7.875 L 11.03125 -12.84375 L 14.78125 -12.84375 L 14.78125 0 L 11.25 0 L 11.25 -7.375 L 7.96875 -2.34375 L 7.890625 -2.34375 L 4.625 -7.359375 L 4.625 0 Z M 1.140625 0 "/></g></g></g><g fill="#242424" fill-opacity="1"><g transform="translate(77.672084, 18.249016)"><g><path d="M 3.78125 0.21875 C 2.832031 0.21875 2.039062 -0.046875 1.40625 -0.578125 C 0.769531 -1.109375 0.453125 -1.863281 0.453125 -2.84375 L 0.453125 -2.875 C 0.453125 -3.90625 0.8125 -4.679688 1.53125 -5.203125 C 2.25 -5.734375 3.1875 -6 4.34375 -6 C 4.800781 -6 5.242188 -5.960938 5.671875 -5.890625 C 6.097656 -5.816406 6.453125 -5.722656 6.734375 -5.609375 L 6.734375 -5.78125 C 6.734375 -6.300781 6.566406 -6.703125 6.234375 -6.984375 C 5.898438 -7.265625 5.40625 -7.40625 4.75 -7.40625 C 4.226562 -7.40625 3.75 -7.351562 3.3125 -7.25 C 2.882812 -7.144531 2.445312 -7.015625 2 -6.859375 L 1.28125 -9.296875 C 1.84375 -9.535156 2.441406 -9.722656 3.078125 -9.859375 C 3.710938 -10.003906 4.453125 -10.078125 5.296875 -10.078125 C 6.179688 -10.078125 6.9375 -9.972656 7.5625 -9.765625 C 8.1875 -9.554688 8.691406 -9.253906 9.078125 -8.859375 C 9.460938 -8.492188 9.734375 -8.050781 9.890625 -7.53125 C 10.054688 -7.007812 10.140625 -6.398438 10.140625 -5.703125 L 10.140625 0 L 6.71875 0 L 6.71875 -1.046875 C 6.375 -0.671875 5.957031 -0.363281 5.46875 -0.125 C 4.988281 0.101562 4.425781 0.21875 3.78125 0.21875 Z M 5.03125 -1.96875 C 5.539062 -1.96875 5.957031 -2.113281 6.28125 -2.40625 C 6.601562 -2.707031 6.765625 -3.101562 6.765625 -3.59375 L 6.765625 -4.046875 C 6.585938 -4.117188 6.378906 -4.179688 6.140625 -4.234375 C 5.898438 -4.285156 5.648438 -4.3125 5.390625 -4.3125 C 4.890625 -4.3125 4.5 -4.203125 4.21875 -3.984375 C 3.9375 -3.765625 3.796875 -3.460938 3.796875 -3.078125 L 3.796875 -3.046875 C 3.796875 -2.703125 3.910156 -2.4375 4.140625 -2.25 C 4.378906 -2.0625 4.675781 -1.96875 5.03125 -1.96875 Z M 5.03125 -1.96875 "/></g></g></g><g fill="#242424" fill-opacity="1"><g transform="translate(88.658815, 18.249016)"><g><path d="M 0.9375 0 L 0.9375 -9.921875 L 4.421875 -9.921875 L 4.421875 -7.921875 C 4.703125 -8.597656 5.085938 -9.132812 5.578125 -9.53125 C 6.078125 -9.9375 6.738281 -10.125 7.5625 -10.09375 L 7.5625 -6.421875 L 7.265625 -6.421875 C 6.359375 -6.421875 5.65625 -6.148438 5.15625 -5.609375 C 4.664062 -5.078125 4.421875 -4.238281 4.421875 -3.09375 L 4.421875 0 Z M 0.9375 0 "/></g></g></g><g fill="#242424" fill-opacity="1"><g transform="translate(96.509111, 18.249016)"><g><path d="M 4.875 0.203125 C 3.832031 0.203125 3.019531 -0.0507812 2.4375 -0.5625 C 1.851562 -1.070312 1.5625 -1.910156 1.5625 -3.078125 L 1.5625 -7.140625 L 0.390625 -7.140625 L 0.390625 -9.921875 L 1.5625 -9.921875 L 1.5625 -12.4375 L 5.03125 -12.4375 L 5.03125 -9.921875 L 7.34375 -9.921875 L 7.34375 -7.140625 L 5.03125 -7.140625 L 5.03125 -3.765625 C 5.03125 -3.421875 5.109375 -3.164062 5.265625 -3 C 5.421875 -2.84375 5.660156 -2.765625 5.984375 -2.765625 C 6.210938 -2.765625 6.4375 -2.796875 6.65625 -2.859375 C 6.875 -2.921875 7.085938 -3 7.296875 -3.09375 L 7.296875 -0.390625 C 6.992188 -0.210938 6.632812 -0.0703125 6.21875 0.03125 C 5.8125 0.144531 5.363281 0.203125 4.875 0.203125 Z M 4.875 0.203125 "/></g></g></g></g></g><path fill="#242424" d="M 85.027344 58.960938 C 86.015625 58.960938 86.816406 58.160156 86.816406 57.171875 L 86.816406 53.707031 C 86.816406 49.230469 90.464844 45.578125 94.957031 45.578125 C 99.453125 45.578125 103.101562 49.230469 103.101562 53.707031 L 103.101562 57.171875 C 103.101562 58.160156 103.902344 58.960938 104.890625 58.960938 C 105.878906 58.960938 106.679688 58.160156 106.679688 57.171875 L 106.679688 54.195312 C 106.679688 47.941406 101.984375 42.445312 95.730469 42.03125 C 88.933594 41.585938 83.238281 46.996094 83.238281 53.707031 L 83.238281 57.171875 C 83.238281 58.160156 84.039062 58.960938 85.027344 58.960938 Z M 85.027344 58.960938 " fill-opacity="1" fill-rule="nonzero"/><path fill="#ffb929" d="M 122.652344 105.472656 L 118.714844 67.191406 C 118.402344 64.140625 115.839844 61.835938 112.777344 61.835938 L 77.140625 61.835938 C 74.078125 61.835938 71.515625 64.15625 71.203125 67.191406 L 70.214844 76.722656 C 69.554688 83.121094 75.636719 88.113281 81.777344 86.238281 L 85.113281 85.222656 C 88.90625 84.0625 93.140625 85.980469 94.628906 90.1875 C 95.144531 91.648438 95.074219 93.25 94.613281 94.742188 L 93.140625 99.550781 C 91.109375 106.191406 96.074219 112.902344 103.015625 112.902344 L 115.953125 112.902344 C 119.945312 112.886719 123.066406 109.4375 122.652344 105.472656 Z M 122.652344 105.472656 " fill-opacity="1" fill-rule="nonzero"/><g clip-path="url(#073897eb06)"><path fill="#242424" d="M 86.371094 89.316406 L 67.09375 95.199219 C 64.289062 96.058594 64.089844 99.949219 66.792969 101.09375 L 71.386719 103.027344 C 73.820312 104.058594 75.765625 105.988281 76.796875 108.4375 L 78.730469 113.03125 C 79.875 115.734375 83.765625 115.535156 84.625 112.730469 L 90.507812 93.453125 C 91.292969 90.917969 88.917969 88.542969 86.371094 89.316406 Z M 86.371094 89.316406 " fill-opacity="1" fill-rule="nonzero"/></g></svg>