<svg xmlns="http://www.w3.org/2000/svg" xmlns:xlink="http://www.w3.org/1999/xlink" width="500" zoomAndPan="magnify" viewBox="0 0 375 374.999991" height="500" preserveAspectRatio="xMidYMid meet" version="1.0"><defs><g/><clipPath id="f6445a3242"><path d="M 0.28125 10 L 30 10 L 30 37 L 0.28125 37 Z M 0.28125 10 " clip-rule="nonzero"/></clipPath><clipPath id="ea5e313759"><rect x="0" width="210" y="0" height="46"/></clipPath><clipPath id="eef552f5f1"><rect x="0" width="127" y="0" height="15"/></clipPath><clipPath id="5fa8483d11"><path d="M 140 124 L 246.875 124 L 246.875 227 L 140 227 Z M 140 124 " clip-rule="nonzero"/></clipPath></defs><rect x="-37.5" width="450" fill="#ffffff" y="-37.499999" height="449.999989" fill-opacity="1"/><rect x="-37.5" width="450" fill="#ffffff" y="-37.499999" height="449.999989" fill-opacity="1"/><g transform="matrix(1, 0, 0, 1, 83, 227)"><g clip-path="url(#ea5e313759)"><g clip-path="url(#f6445a3242)"><g fill="#242424" fill-opacity="1"><g transform="translate(0.384757, 36.198031)"><g><path d="M 0.25 0 L 11.1875 -25.9375 L 18.0625 -25.9375 L 29.015625 0 L 21.375 0 L 19.53125 -4.640625 L 9.5625 -4.640625 L 7.71875 0 Z M 11.65625 -10.1875 L 17.4375 -10.1875 L 14.5625 -17.46875 Z M 11.65625 -10.1875 "/></g></g></g></g><g fill="#242424" fill-opacity="1"><g transform="translate(29.625988, 36.198031)"><g><path d="M 2.0625 0 L 2.0625 -26.84375 L 9.015625 -26.84375 L 9.015625 0 Z M 2.0625 0 "/></g></g></g><g fill="#242424" fill-opacity="1"><g transform="translate(40.697195, 36.198031)"><g><path d="M 2.0625 0 L 2.0625 -26.84375 L 9.015625 -26.84375 L 9.015625 0 Z M 2.0625 0 "/></g></g></g><g fill="#242424" fill-opacity="1"><g transform="translate(51.768401, 36.198031)"><g><path d="M 8.53125 0.4375 C 6.425781 0.4375 4.765625 -0.222656 3.546875 -1.546875 C 2.335938 -2.867188 1.734375 -4.660156 1.734375 -6.921875 L 1.734375 -19.90625 L 8.71875 -19.90625 L 8.71875 -9.125 C 8.71875 -8.039062 8.976562 -7.210938 9.5 -6.640625 C 10.03125 -6.066406 10.710938 -5.78125 11.546875 -5.78125 C 12.378906 -5.78125 13.078125 -6.066406 13.640625 -6.640625 C 14.203125 -7.210938 14.484375 -8.039062 14.484375 -9.125 L 14.484375 -19.90625 L 21.4375 -19.90625 L 21.4375 0 L 14.484375 0 L 14.484375 -2.765625 C 13.847656 -1.929688 13.046875 -1.1875 12.078125 -0.53125 C 11.109375 0.113281 9.925781 0.4375 8.53125 0.4375 Z M 8.53125 0.4375 "/></g></g></g><g fill="#242424" fill-opacity="1"><g transform="translate(75.087826, 36.198031)"><g><path d="M 1.875 0 L 1.875 -19.90625 L 8.859375 -19.90625 L 8.859375 -15.890625 C 9.421875 -17.234375 10.195312 -18.3125 11.1875 -19.125 C 12.1875 -19.9375 13.507812 -20.304688 15.15625 -20.234375 L 15.15625 -12.875 L 14.5625 -12.875 C 12.75 -12.875 11.34375 -12.332031 10.34375 -11.25 C 9.351562 -10.175781 8.859375 -8.5 8.859375 -6.21875 L 8.859375 0 Z M 1.875 0 "/></g></g></g><g fill="#242424" fill-opacity="1"><g transform="translate(90.830276, 36.198031)"><g><path d="M 7.578125 0.4375 C 5.691406 0.4375 4.109375 -0.09375 2.828125 -1.15625 C 1.554688 -2.226562 0.921875 -3.742188 0.921875 -5.703125 L 0.921875 -5.78125 C 0.921875 -7.832031 1.632812 -9.382812 3.0625 -10.4375 C 4.5 -11.5 6.382812 -12.03125 8.71875 -12.03125 C 9.625 -12.03125 10.503906 -11.957031 11.359375 -11.8125 C 12.222656 -11.664062 12.9375 -11.476562 13.5 -11.25 L 13.5 -11.59375 C 13.5 -12.644531 13.164062 -13.453125 12.5 -14.015625 C 11.84375 -14.578125 10.851562 -14.859375 9.53125 -14.859375 C 8.46875 -14.859375 7.507812 -14.753906 6.65625 -14.546875 C 5.800781 -14.335938 4.921875 -14.070312 4.015625 -13.75 L 2.578125 -18.640625 C 3.703125 -19.109375 4.898438 -19.484375 6.171875 -19.765625 C 7.453125 -20.046875 8.9375 -20.1875 10.625 -20.1875 C 12.394531 -20.1875 13.90625 -19.976562 15.15625 -19.5625 C 16.40625 -19.144531 17.421875 -18.546875 18.203125 -17.765625 C 18.960938 -17.023438 19.507812 -16.132812 19.84375 -15.09375 C 20.175781 -14.050781 20.34375 -12.832031 20.34375 -11.4375 L 20.34375 0 L 13.46875 0 L 13.46875 -2.09375 C 12.78125 -1.332031 11.953125 -0.71875 10.984375 -0.25 C 10.015625 0.207031 8.878906 0.4375 7.578125 0.4375 Z M 10.078125 -3.9375 C 11.109375 -3.9375 11.945312 -4.234375 12.59375 -4.828125 C 13.25 -5.429688 13.578125 -6.222656 13.578125 -7.203125 L 13.578125 -8.125 C 13.203125 -8.269531 12.773438 -8.390625 12.296875 -8.484375 C 11.828125 -8.585938 11.332031 -8.640625 10.8125 -8.640625 C 9.8125 -8.640625 9.023438 -8.414062 8.453125 -7.96875 C 7.890625 -7.53125 7.609375 -6.929688 7.609375 -6.171875 L 7.609375 -6.109375 C 7.609375 -5.421875 7.84375 -4.882812 8.3125 -4.5 C 8.78125 -4.125 9.367188 -3.9375 10.078125 -3.9375 Z M 10.078125 -3.9375 "/></g></g></g><g fill="#242424" fill-opacity="1"><g transform="translate(112.862346, 36.198031)"><g/></g></g><g fill="#242424" fill-opacity="1"><g transform="translate(123.050802, 36.198031)"><g><path d="M 2.28125 0 L 2.28125 -25.75 L 9.828125 -25.75 L 15.96875 -15.78125 L 22.109375 -25.75 L 29.640625 -25.75 L 29.640625 0 L 22.546875 0 L 22.546875 -14.78125 L 15.96875 -4.703125 L 15.8125 -4.703125 L 9.265625 -14.75 L 9.265625 0 Z M 2.28125 0 "/></g></g></g><g fill="#242424" fill-opacity="1"><g transform="translate(154.977085, 36.198031)"><g><path d="M 7.578125 0.4375 C 5.691406 0.4375 4.109375 -0.09375 2.828125 -1.15625 C 1.554688 -2.226562 0.921875 -3.742188 0.921875 -5.703125 L 0.921875 -5.78125 C 0.921875 -7.832031 1.632812 -9.382812 3.0625 -10.4375 C 4.5 -11.5 6.382812 -12.03125 8.71875 -12.03125 C 9.625 -12.03125 10.503906 -11.957031 11.359375 -11.8125 C 12.222656 -11.664062 12.9375 -11.476562 13.5 -11.25 L 13.5 -11.59375 C 13.5 -12.644531 13.164062 -13.453125 12.5 -14.015625 C 11.84375 -14.578125 10.851562 -14.859375 9.53125 -14.859375 C 8.46875 -14.859375 7.507812 -14.753906 6.65625 -14.546875 C 5.800781 -14.335938 4.921875 -14.070312 4.015625 -13.75 L 2.578125 -18.640625 C 3.703125 -19.109375 4.898438 -19.484375 6.171875 -19.765625 C 7.453125 -20.046875 8.9375 -20.1875 10.625 -20.1875 C 12.394531 -20.1875 13.90625 -19.976562 15.15625 -19.5625 C 16.40625 -19.144531 17.421875 -18.546875 18.203125 -17.765625 C 18.960938 -17.023438 19.507812 -16.132812 19.84375 -15.09375 C 20.175781 -14.050781 20.34375 -12.832031 20.34375 -11.4375 L 20.34375 0 L 13.46875 0 L 13.46875 -2.09375 C 12.78125 -1.332031 11.953125 -0.71875 10.984375 -0.25 C 10.015625 0.207031 8.878906 0.4375 7.578125 0.4375 Z M 10.078125 -3.9375 C 11.109375 -3.9375 11.945312 -4.234375 12.59375 -4.828125 C 13.25 -5.429688 13.578125 -6.222656 13.578125 -7.203125 L 13.578125 -8.125 C 13.203125 -8.269531 12.773438 -8.390625 12.296875 -8.484375 C 11.828125 -8.585938 11.332031 -8.640625 10.8125 -8.640625 C 9.8125 -8.640625 9.023438 -8.414062 8.453125 -7.96875 C 7.890625 -7.53125 7.609375 -6.929688 7.609375 -6.171875 L 7.609375 -6.109375 C 7.609375 -5.421875 7.84375 -4.882812 8.3125 -4.5 C 8.78125 -4.125 9.367188 -3.9375 10.078125 -3.9375 Z M 10.078125 -3.9375 "/></g></g></g><g fill="#242424" fill-opacity="1"><g transform="translate(177.009143, 36.198031)"><g><path d="M 1.875 0 L 1.875 -19.90625 L 8.859375 -19.90625 L 8.859375 -15.890625 C 9.421875 -17.234375 10.195312 -18.3125 11.1875 -19.125 C 12.1875 -19.9375 13.507812 -20.304688 15.15625 -20.234375 L 15.15625 -12.875 L 14.5625 -12.875 C 12.75 -12.875 11.34375 -12.332031 10.34375 -11.25 C 9.351562 -10.175781 8.859375 -8.5 8.859375 -6.21875 L 8.859375 0 Z M 1.875 0 "/></g></g></g><g fill="#242424" fill-opacity="1"><g transform="translate(192.751605, 36.198031)"><g><path d="M 9.78125 0.40625 C 7.695312 0.40625 6.066406 -0.0976562 4.890625 -1.109375 C 3.710938 -2.128906 3.125 -3.816406 3.125 -6.171875 L 3.125 -14.3125 L 0.765625 -14.3125 L 0.765625 -19.90625 L 3.125 -19.90625 L 3.125 -24.9375 L 10.078125 -24.9375 L 10.078125 -19.90625 L 14.71875 -19.90625 L 14.71875 -14.3125 L 10.078125 -14.3125 L 10.078125 -7.546875 C 10.078125 -6.859375 10.234375 -6.351562 10.546875 -6.03125 C 10.867188 -5.707031 11.347656 -5.546875 11.984375 -5.546875 C 12.453125 -5.546875 12.90625 -5.609375 13.34375 -5.734375 C 13.789062 -5.859375 14.222656 -6.019531 14.640625 -6.21875 L 14.640625 -0.765625 C 14.023438 -0.421875 13.304688 -0.140625 12.484375 0.078125 C 11.660156 0.296875 10.757812 0.40625 9.78125 0.40625 Z M 9.78125 0.40625 "/></g></g></g></g></g><g transform="matrix(1, 0, 0, 1, 125, 271)"><g clip-path="url(#eef552f5f1)"><g fill="#242424" fill-opacity="1"><g transform="translate(1.005416, 11.633252)"><g><path d="M 4.890625 0.140625 C 4.265625 0.140625 3.691406 0.03125 3.171875 -0.1875 C 2.648438 -0.40625 2.195312 -0.703125 1.8125 -1.078125 C 1.4375 -1.453125 1.140625 -1.890625 0.921875 -2.390625 C 0.710938 -2.890625 0.609375 -3.429688 0.609375 -4.015625 L 0.609375 -4.03125 C 0.609375 -4.613281 0.710938 -5.15625 0.921875 -5.65625 C 1.140625 -6.15625 1.441406 -6.59375 1.828125 -6.96875 C 2.210938 -7.351562 2.664062 -7.65625 3.1875 -7.875 C 3.71875 -8.09375 4.289062 -8.203125 4.90625 -8.203125 C 5.53125 -8.203125 6.101562 -8.09375 6.625 -7.875 C 7.15625 -7.65625 7.609375 -7.359375 7.984375 -6.984375 C 8.367188 -6.617188 8.664062 -6.179688 8.875 -5.671875 C 9.082031 -5.171875 9.1875 -4.632812 9.1875 -4.0625 L 9.1875 -4.03125 C 9.1875 -3.457031 9.078125 -2.914062 8.859375 -2.40625 C 8.648438 -1.90625 8.351562 -1.460938 7.96875 -1.078125 C 7.59375 -0.703125 7.140625 -0.40625 6.609375 -0.1875 C 6.085938 0.03125 5.515625 0.140625 4.890625 0.140625 Z M 4.90625 -1.5 C 5.257812 -1.5 5.585938 -1.5625 5.890625 -1.6875 C 6.191406 -1.820312 6.445312 -2.003906 6.65625 -2.234375 C 6.863281 -2.460938 7.023438 -2.726562 7.140625 -3.03125 C 7.265625 -3.34375 7.328125 -3.671875 7.328125 -4.015625 L 7.328125 -4.03125 C 7.328125 -4.382812 7.265625 -4.710938 7.140625 -5.015625 C 7.023438 -5.328125 6.859375 -5.597656 6.640625 -5.828125 C 6.421875 -6.054688 6.160156 -6.238281 5.859375 -6.375 C 5.566406 -6.507812 5.242188 -6.578125 4.890625 -6.578125 C 4.523438 -6.578125 4.191406 -6.507812 3.890625 -6.375 C 3.597656 -6.25 3.347656 -6.066406 3.140625 -5.828125 C 2.929688 -5.597656 2.765625 -5.332031 2.640625 -5.03125 C 2.523438 -4.726562 2.46875 -4.40625 2.46875 -4.0625 L 2.46875 -4.03125 C 2.46875 -3.6875 2.523438 -3.359375 2.640625 -3.046875 C 2.765625 -2.742188 2.9375 -2.476562 3.15625 -2.25 C 3.375 -2.019531 3.628906 -1.835938 3.921875 -1.703125 C 4.222656 -1.566406 4.550781 -1.5 4.90625 -1.5 Z M 4.90625 -1.5 "/></g></g></g><g fill="#242424" fill-opacity="1"><g transform="translate(13.720004, 11.633252)"><g><path d="M 0.96875 -8.078125 L 2.609375 -8.078125 L 6.390625 -3.109375 L 6.390625 -8.078125 L 8.140625 -8.078125 L 8.140625 0 L 6.625 0 L 2.71875 -5.125 L 2.71875 0 L 0.96875 0 Z M 0.96875 -8.078125 "/></g></g></g><g fill="#242424" fill-opacity="1"><g transform="translate(25.742411, 11.633252)"><g><path d="M 0.96875 -8.078125 L 2.75 -8.078125 L 2.75 -1.609375 L 6.765625 -1.609375 L 6.765625 0 L 0.96875 0 Z M 0.96875 -8.078125 "/></g></g></g><g fill="#242424" fill-opacity="1"><g transform="translate(35.792118, 11.633252)"><g><path d="M 1.046875 -8.078125 L 2.828125 -8.078125 L 2.828125 0 L 1.046875 0 Z M 1.046875 -8.078125 "/></g></g></g><g fill="#242424" fill-opacity="1"><g transform="translate(42.577068, 11.633252)"><g><path d="M 0.96875 -8.078125 L 2.609375 -8.078125 L 6.390625 -3.109375 L 6.390625 -8.078125 L 8.140625 -8.078125 L 8.140625 0 L 6.625 0 L 2.71875 -5.125 L 2.71875 0 L 0.96875 0 Z M 0.96875 -8.078125 "/></g></g></g><g fill="#242424" fill-opacity="1"><g transform="translate(54.599475, 11.633252)"><g><path d="M 0.96875 -8.078125 L 7.0625 -8.078125 L 7.0625 -6.484375 L 2.734375 -6.484375 L 2.734375 -4.859375 L 6.53125 -4.859375 L 6.53125 -3.28125 L 2.734375 -3.28125 L 2.734375 -1.578125 L 7.109375 -1.578125 L 7.109375 0 L 0.96875 0 Z M 0.96875 -8.078125 "/></g></g></g><g fill="#242424" fill-opacity="1"><g transform="translate(65.237537, 11.633252)"><g/></g></g><g fill="#242424" fill-opacity="1"><g transform="translate(71.607177, 11.633252)"><g><path d="M 3.84375 0.109375 C 3.226562 0.109375 2.625 0.00390625 2.03125 -0.203125 C 1.4375 -0.410156 0.898438 -0.734375 0.421875 -1.171875 L 1.46875 -2.4375 C 1.832031 -2.132812 2.207031 -1.894531 2.59375 -1.71875 C 2.988281 -1.539062 3.414062 -1.453125 3.875 -1.453125 C 4.238281 -1.453125 4.523438 -1.519531 4.734375 -1.65625 C 4.941406 -1.789062 5.046875 -1.976562 5.046875 -2.21875 L 5.046875 -2.234375 C 5.046875 -2.347656 5.019531 -2.445312 4.96875 -2.53125 C 4.925781 -2.625 4.847656 -2.707031 4.734375 -2.78125 C 4.617188 -2.863281 4.453125 -2.941406 4.234375 -3.015625 C 4.023438 -3.097656 3.75 -3.179688 3.40625 -3.265625 C 3 -3.359375 2.628906 -3.46875 2.296875 -3.59375 C 1.972656 -3.71875 1.695312 -3.867188 1.46875 -4.046875 C 1.238281 -4.234375 1.054688 -4.457031 0.921875 -4.71875 C 0.796875 -4.988281 0.734375 -5.328125 0.734375 -5.734375 L 0.734375 -5.75 C 0.734375 -6.125 0.800781 -6.457031 0.9375 -6.75 C 1.082031 -7.050781 1.28125 -7.304688 1.53125 -7.515625 C 1.78125 -7.734375 2.078125 -7.898438 2.421875 -8.015625 C 2.765625 -8.128906 3.144531 -8.1875 3.5625 -8.1875 C 4.15625 -8.1875 4.695312 -8.097656 5.1875 -7.921875 C 5.6875 -7.742188 6.144531 -7.488281 6.5625 -7.15625 L 5.640625 -5.828125 C 5.273438 -6.066406 4.921875 -6.257812 4.578125 -6.40625 C 4.234375 -6.550781 3.890625 -6.625 3.546875 -6.625 C 3.191406 -6.625 2.925781 -6.554688 2.75 -6.421875 C 2.582031 -6.285156 2.5 -6.117188 2.5 -5.921875 L 2.5 -5.890625 C 2.5 -5.765625 2.523438 -5.648438 2.578125 -5.546875 C 2.628906 -5.453125 2.71875 -5.363281 2.84375 -5.28125 C 2.976562 -5.207031 3.15625 -5.132812 3.375 -5.0625 C 3.601562 -5 3.894531 -4.921875 4.25 -4.828125 C 4.65625 -4.722656 5.015625 -4.601562 5.328125 -4.46875 C 5.648438 -4.332031 5.921875 -4.171875 6.140625 -3.984375 C 6.359375 -3.796875 6.519531 -3.570312 6.625 -3.3125 C 6.738281 -3.0625 6.796875 -2.757812 6.796875 -2.40625 L 6.796875 -2.390625 C 6.796875 -1.984375 6.722656 -1.625 6.578125 -1.3125 C 6.429688 -1.007812 6.226562 -0.75 5.96875 -0.53125 C 5.707031 -0.320312 5.394531 -0.160156 5.03125 -0.046875 C 4.675781 0.0546875 4.28125 0.109375 3.84375 0.109375 Z M 3.84375 0.109375 "/></g></g></g><g fill="#242424" fill-opacity="1"><g transform="translate(81.899148, 11.633252)"><g><path d="M 2.84375 -6.4375 L 0.390625 -6.4375 L 0.390625 -8.078125 L 7.078125 -8.078125 L 7.078125 -6.4375 L 4.625 -6.4375 L 4.625 0 L 2.84375 0 Z M 2.84375 -6.4375 "/></g></g></g><g fill="#242424" fill-opacity="1"><g transform="translate(92.283406, 11.633252)"><g><path d="M 4.890625 0.140625 C 4.265625 0.140625 3.691406 0.03125 3.171875 -0.1875 C 2.648438 -0.40625 2.195312 -0.703125 1.8125 -1.078125 C 1.4375 -1.453125 1.140625 -1.890625 0.921875 -2.390625 C 0.710938 -2.890625 0.609375 -3.429688 0.609375 -4.015625 L 0.609375 -4.03125 C 0.609375 -4.613281 0.710938 -5.15625 0.921875 -5.65625 C 1.140625 -6.15625 1.441406 -6.59375 1.828125 -6.96875 C 2.210938 -7.351562 2.664062 -7.65625 3.1875 -7.875 C 3.71875 -8.09375 4.289062 -8.203125 4.90625 -8.203125 C 5.53125 -8.203125 6.101562 -8.09375 6.625 -7.875 C 7.15625 -7.65625 7.609375 -7.359375 7.984375 -6.984375 C 8.367188 -6.617188 8.664062 -6.179688 8.875 -5.671875 C 9.082031 -5.171875 9.1875 -4.632812 9.1875 -4.0625 L 9.1875 -4.03125 C 9.1875 -3.457031 9.078125 -2.914062 8.859375 -2.40625 C 8.648438 -1.90625 8.351562 -1.460938 7.96875 -1.078125 C 7.59375 -0.703125 7.140625 -0.40625 6.609375 -0.1875 C 6.085938 0.03125 5.515625 0.140625 4.890625 0.140625 Z M 4.90625 -1.5 C 5.257812 -1.5 5.585938 -1.5625 5.890625 -1.6875 C 6.191406 -1.820312 6.445312 -2.003906 6.65625 -2.234375 C 6.863281 -2.460938 7.023438 -2.726562 7.140625 -3.03125 C 7.265625 -3.34375 7.328125 -3.671875 7.328125 -4.015625 L 7.328125 -4.03125 C 7.328125 -4.382812 7.265625 -4.710938 7.140625 -5.015625 C 7.023438 -5.328125 6.859375 -5.597656 6.640625 -5.828125 C 6.421875 -6.054688 6.160156 -6.238281 5.859375 -6.375 C 5.566406 -6.507812 5.242188 -6.578125 4.890625 -6.578125 C 4.523438 -6.578125 4.191406 -6.507812 3.890625 -6.375 C 3.597656 -6.25 3.347656 -6.066406 3.140625 -5.828125 C 2.929688 -5.597656 2.765625 -5.332031 2.640625 -5.03125 C 2.523438 -4.726562 2.46875 -4.40625 2.46875 -4.0625 L 2.46875 -4.03125 C 2.46875 -3.6875 2.523438 -3.359375 2.640625 -3.046875 C 2.765625 -2.742188 2.9375 -2.476562 3.15625 -2.25 C 3.375 -2.019531 3.628906 -1.835938 3.921875 -1.703125 C 4.222656 -1.566406 4.550781 -1.5 4.90625 -1.5 Z M 4.90625 -1.5 "/></g></g></g><g fill="#242424" fill-opacity="1"><g transform="translate(104.997995, 11.633252)"><g><path d="M 0.96875 -8.078125 L 4.65625 -8.078125 C 5.675781 -8.078125 6.460938 -7.800781 7.015625 -7.25 C 7.472656 -6.789062 7.703125 -6.175781 7.703125 -5.40625 L 7.703125 -5.390625 C 7.703125 -4.734375 7.539062 -4.195312 7.21875 -3.78125 C 6.90625 -3.375 6.488281 -3.078125 5.96875 -2.890625 L 7.9375 0 L 5.875 0 L 4.140625 -2.578125 L 2.75 -2.578125 L 2.75 0 L 0.96875 0 Z M 4.546875 -4.15625 C 4.984375 -4.15625 5.316406 -4.257812 5.546875 -4.46875 C 5.785156 -4.675781 5.90625 -4.953125 5.90625 -5.296875 L 5.90625 -5.3125 C 5.90625 -5.695312 5.78125 -5.984375 5.53125 -6.171875 C 5.289062 -6.367188 4.953125 -6.46875 4.515625 -6.46875 L 2.75 -6.46875 L 2.75 -4.15625 Z M 4.546875 -4.15625 "/></g></g></g><g fill="#242424" fill-opacity="1"><g transform="translate(116.247471, 11.633252)"><g><path d="M 0.96875 -8.078125 L 7.0625 -8.078125 L 7.0625 -6.484375 L 2.734375 -6.484375 L 2.734375 -4.859375 L 6.53125 -4.859375 L 6.53125 -3.28125 L 2.734375 -3.28125 L 2.734375 -1.578125 L 7.109375 -1.578125 L 7.109375 0 L 0.96875 0 Z M 0.96875 -8.078125 "/></g></g></g></g></g><path fill="#242424" d="M 170.507812 118.238281 C 172.484375 118.238281 174.09375 116.628906 174.09375 114.648438 L 174.09375 107.703125 C 174.09375 98.722656 181.410156 91.402344 190.421875 91.402344 C 199.433594 91.402344 206.753906 98.722656 206.753906 107.703125 L 206.753906 114.648438 C 206.753906 116.628906 208.359375 118.238281 210.339844 118.238281 C 212.320312 118.238281 213.929688 116.628906 213.929688 114.648438 L 213.929688 108.679688 C 213.929688 96.136719 204.515625 85.117188 191.972656 84.285156 C 178.339844 83.394531 166.917969 94.242188 166.917969 107.703125 L 166.917969 114.648438 C 166.917969 116.628906 168.527344 118.238281 170.507812 118.238281 Z M 170.507812 118.238281 " fill-opacity="1" fill-rule="nonzero"/><g clip-path="url(#5fa8483d11)"><path fill="#ffb929" d="M 245.957031 211.511719 L 238.066406 134.738281 C 237.433594 128.625 232.296875 124.003906 226.15625 124.003906 L 154.691406 124.003906 C 148.550781 124.003906 143.414062 128.65625 142.78125 134.738281 L 140.800781 153.851562 C 139.480469 166.683594 151.679688 176.699219 163.992188 172.9375 L 170.679688 170.902344 C 178.285156 168.574219 186.777344 172.421875 189.761719 180.859375 C 190.796875 183.785156 190.652344 187 189.734375 189.984375 L 186.777344 199.628906 C 182.703125 212.945312 192.660156 226.40625 206.582031 226.40625 L 232.527344 226.40625 C 240.53125 226.375 246.789062 219.460938 245.957031 211.511719 Z M 245.957031 211.511719 " fill-opacity="1" fill-rule="nonzero"/></g><path fill="#242424" d="M 173.203125 179.109375 L 134.546875 190.902344 C 128.921875 192.625 128.519531 200.433594 133.941406 202.726562 L 143.15625 206.601562 C 148.035156 208.667969 151.9375 212.542969 154.003906 217.453125 L 157.878906 226.664062 C 160.175781 232.089844 167.980469 231.6875 169.703125 226.0625 L 181.496094 187.402344 C 183.078125 182.324219 178.3125 177.558594 173.203125 179.109375 Z M 173.203125 179.109375 " fill-opacity="1" fill-rule="nonzero"/></svg>